<svg width="20" height="20" viewBox="0 0 50 50" fill="none" xmlns="http://www.w3.org/2000/svg">
<path d="M29.9531 2.21563C21.4363 2.29014 12.2207 7.40508 6.69238 15.9272C6.60019 16.0697 6.52861 16.2268 6.43915 16.3695C6.48359 16.3308 6.52314 16.28 6.56738 16.2416C2.63642 21.8064 3.13154 29.572 8.11162 34.5522C13.4391 39.8795 21.9539 40.0844 27.5543 35.2143C27.0977 35.8564 26.5859 36.4972 26.0101 37.0727C20.4437 42.6391 11.4076 42.6391 5.8412 37.0727C4.10156 35.3334 2.90146 33.2904 2.24911 31.0852C2.53505 37.4919 5.66415 43.0715 11.4197 45.926C21.5362 50.943 35.8533 45.6525 43.3411 34.1096C49.893 24.0094 49.0693 12.4389 41.9861 6.34766C40.9744 5.47754 39.8176 4.73799 38.5529 4.11075C36.0239 2.85645 33.2352 2.24453 30.3591 2.21553C30.2243 2.21426 30.0884 2.21436 29.9532 2.21553L29.9531 2.21563ZM30.0566 8.30996C34.6601 8.24112 38.126 10.5965 38.8824 14.0625V14.0654C39.0208 14.6994 39.0588 15.3901 39.0137 16.1193C38.6541 21.9535 32.2963 28.488 24.8107 30.7251C24.7185 30.7526 24.6279 30.7663 24.5361 30.7923L24.6277 30.7464C20.9321 31.9884 17.3928 30.6772 16.3818 27.4628C15.6953 25.2792 16.3361 22.7222 17.8711 20.587C17.7056 21.2901 17.8662 21.9454 18.393 22.3814C19.4323 23.2424 21.5014 22.9259 23.0133 21.6734C24.5253 20.4211 24.9072 18.7076 23.8678 17.8466C23.2531 17.3374 22.2772 17.2401 21.2707 17.5048C21.2881 17.4947 21.3052 17.4843 21.3226 17.4742C21.2489 17.4993 21.1742 17.527 21.1 17.5536C21.0664 17.5656 21.0326 17.5748 20.9991 17.5872C20.7303 17.6749 20.4691 17.7841 20.2179 17.9138C20.1538 17.9438 20.0894 17.9733 20.0257 18.0053C15.8876 20.0795 11.8981 24.6786 13.028 28.2714C13.3811 29.3941 14.0254 30.2845 14.8927 30.9173C11.9383 29.8978 10.171 27.5456 10.3455 24.2249C10.7051 17.3072 18.4698 11.2064 25.9553 8.96905C27.3882 8.54082 28.768 8.32911 30.0568 8.30987L30.0566 8.30996Z" fill="#175e7f"/>
</svg>
